<svg width="16" height="16" viewBox="0 0 16 16" fill="none" xmlns="http://www.w3.org/2000/svg">
<path d="M13 2.625H3C2.63533 2.625 2.28559 2.76987 2.02773 3.02773C1.76987 3.28559 1.625 3.63533 1.625 4V11C1.625 11.3647 1.76987 11.7144 2.02773 11.9723C2.28559 12.2301 2.63533 12.375 3 12.375H7.625V13.625H6C5.90054 13.625 5.80516 13.6645 5.73484 13.7348C5.66451 13.8052 5.625 13.9005 5.625 14C5.625 14.0995 5.66451 14.1948 5.73484 14.2652C5.80516 14.3355 5.90054 14.375 6 14.375H10C10.0995 14.375 10.1948 14.3355 10.2652 14.2652C10.3355 14.1948 10.375 14.0995 10.375 14C10.375 13.9005 10.3355 13.8052 10.2652 13.7348C10.1948 13.6645 10.0995 13.625 10 13.625H8.375V12.375H13C13.3647 12.375 13.7144 12.2301 13.9723 11.9723C14.2301 11.7144 14.375 11.3647 14.375 11V4C14.375 3.63533 14.2301 3.28559 13.9723 3.02773C13.7144 2.76987 13.3647 2.625 13 2.625ZM3 3.375H13C13.1658 3.375 13.3247 3.44085 13.4419 3.55806C13.5592 3.67527 13.625 3.83424 13.625 4V9.125H2.375V4C2.375 3.83424 2.44085 3.67527 2.55806 3.55806C2.67527 3.44085 2.83424 3.375 3 3.375ZM13 11.625H3C2.83424 11.625 2.67527 11.5592 2.55806 11.4419C2.44085 11.3247 2.375 11.1658 2.375 11V9.875H13.625V11C13.625 11.1658 13.5592 11.3247 13.4419 11.4419C13.3247 11.5592 13.1658 11.625 13 11.625Z" fill="white"/>
</svg>
