<svg width="24" height="24" viewBox="0 0 24 24" fill="none" xmlns="http://www.w3.org/2000/svg">
<path fill-rule="evenodd" clip-rule="evenodd" d="M16.3502 0.858757C13.7731 -0.0762781 10.9536 -0.100761 8.36078 0.789382C5.44281 1.80568 3.03392 3.91606 1.64265 6.67501L1.64265 6.675C1.16716 7.61817 0.820316 8.62086 0.611401 9.65625C0.0893509 12.2556 0.452202 14.9548 1.64213 17.324C1.64168 17.3243 1.64123 17.3247 1.64078 17.325C2.41882 18.8587 3.51889 20.2063 4.86578 21.2756C6.13829 22.2892 7.60647 23.0291 9.17828 23.4488C11.1656 23.9616 13.2478 23.9841 15.2458 23.5144C17.0524 23.1081 18.7227 22.2404 20.0939 20.9962C20.0947 20.9968 20.0956 20.9975 20.0964 20.9981C21.5253 19.66 22.5625 17.9578 23.0964 16.0744C23.6768 14.0263 23.78 11.8724 23.3983 9.77813H12.2383C12.2383 10.2926 12.2381 10.807 12.2379 11.3214V11.3216C12.2375 12.3501 12.237 13.3783 12.2383 14.4056H18.7014C18.5727 15.1447 18.2961 15.8501 17.8882 16.4796C17.4824 17.106 16.9549 17.6444 16.3371 18.063C16.3358 18.062 16.3346 18.061 16.3333 18.06C15.5441 18.5821 14.6544 18.9333 13.7214 19.0913C12.7857 19.2652 11.8259 19.2652 10.8902 19.0913C9.94052 18.8988 9.04142 18.5105 8.25015 17.9513C6.98186 17.055 6.02916 15.781 5.52804 14.3111C5.52854 14.3108 5.52903 14.3104 5.52953 14.31C5.02105 12.8126 5.02105 11.1893 5.52953 9.69187L1.64546 6.67718L5.52953 9.68438C5.88545 8.63479 6.47384 7.67914 7.25078 6.88876C8.14086 5.96862 9.26719 5.31143 10.5062 4.98927C11.7452 4.66712 13.049 4.69246 14.2745 5.06251C15.2322 5.35649 16.108 5.87014 16.832 6.56251C17.5583 5.84126 18.2852 5.11751 19.0127 4.39126C19.156 4.24508 19.3012 4.10101 19.4465 3.95687L19.4466 3.95674L19.4467 3.95668C19.689 3.71633 19.9314 3.4758 20.1658 3.22501C19.0621 2.1927 17.7654 1.38856 16.3502 0.858757ZM5.33105 14.4633C4.16772 15.362 3.00389 16.2648 1.83956 17.1716C3.00389 16.2729 4.16772 15.3701 5.33105 14.4633Z" fill="#BBCCDC"/>
</svg>
